<svg width="123" height="28" viewBox="0 0 123 28" fill="none" xmlns="http://www.w3.org/2000/svg">
<path d="M3.38562 8.45856V27.5679H0.0234375V10.4839L3.38562 8.45856ZM18.9124 8.43474C21.2705 8.43474 23.1618 9.12572 24.5393 10.5553C25.9402 11.9373 26.6407 13.9865 26.6407 16.6551V27.5679H23.2785V17.0602C23.2785 15.2255 22.8349 13.8435 21.971 12.9142C21.1071 11.985 19.8696 11.5084 18.2586 11.5084C16.4374 11.5084 14.9898 12.0565 13.9625 13.1287C12.8884 14.2247 12.3748 15.7973 12.3748 17.8226V27.5679H9.0126V8.62535H12.2347V11.4846C12.9118 10.5077 13.8224 9.76905 14.9665 9.22103C16.1339 8.69683 17.4414 8.43474 18.9124 8.43474ZM41.8172 26.4719C41.3269 26.9007 40.7198 27.2343 39.996 27.4488C39.2722 27.6632 38.5251 27.8062 37.7546 27.8062C35.8867 27.8062 34.4391 27.282 33.4118 26.2336C32.3844 25.209 31.8708 23.7556 31.8708 21.8494V5.21808L35.2329 3.16895V8.62535H40.5564V11.437H35.2329V21.7064C35.2329 22.731 35.4898 23.5173 35.9801 24.0653C36.4704 24.6133 37.2176 24.8993 38.1515 24.8993C39.1788 24.8993 40.0427 24.5895 40.7665 23.9938L41.8172 26.4719ZM62.2238 18.2039C62.2238 18.4659 62.2004 18.7995 62.1304 19.2522H47.0706C47.3041 20.8963 48.0046 22.2545 49.242 23.2552C50.4561 24.2559 51.9971 24.7801 53.8183 24.7801C56.0131 24.7801 57.8109 24.0177 59.1651 22.4927L61.033 24.7087C60.1925 25.7094 59.1418 26.4719 57.881 27.0199C56.6435 27.5203 55.2426 27.8062 53.7016 27.8062C51.7403 27.8062 50.0125 27.3773 48.4715 26.5433C46.9539 25.7332 45.7864 24.5895 44.9459 23.0884C44.1287 21.6111 43.7084 19.9432 43.7084 18.0847C43.7084 16.2739 44.1287 14.606 44.9226 13.1287C45.7398 11.6514 46.8605 10.5077 48.238 9.67375C49.6623 8.86362 51.25 8.43474 53.0245 8.43474C54.8223 8.43474 56.3867 8.86362 57.7876 9.67375C59.1651 10.5077 60.2625 11.6514 61.0564 13.1287C61.8269 14.606 62.2238 16.2977 62.2238 18.2039ZM53.0245 11.3416C51.4134 11.3416 50.0826 11.842 48.9852 12.8428C47.9112 13.8435 47.2574 15.154 47.0706 16.7742H59.0017C58.8149 15.1778 58.1611 13.8673 57.0638 12.8666C55.9897 11.842 54.6355 11.3416 53.0245 11.3416ZM76.7932 8.43474C79.1514 8.43474 81.0193 9.12572 82.4202 10.5553C83.7978 11.9373 84.4982 13.9865 84.4982 16.6551V27.5679H81.136V17.0602C81.136 15.2255 80.6924 13.8435 79.8285 12.9142C78.9646 11.985 77.7272 11.5084 76.1161 11.5084C74.2949 11.5084 72.8707 12.0565 71.82 13.1287C70.7693 14.2247 70.2323 15.7973 70.2323 17.8226V27.5679H66.8701V8.62535H70.0922V11.4846C70.7693 10.5077 71.6799 9.76905 72.8473 9.22103C73.9914 8.69683 75.3223 8.43474 76.7932 8.43474ZM96.0557 27.8062C94.5381 27.8062 93.0905 27.5679 91.6895 27.1628C90.2653 26.734 89.1913 26.2098 88.3974 25.5664L89.7983 22.8501C90.6155 23.4458 91.5962 23.9224 92.7636 24.2798C93.931 24.6372 95.0984 24.804 96.3125 24.804C99.2545 24.804 100.702 23.9462 100.702 22.2306C100.702 21.6826 100.515 21.2061 100.118 20.8963C99.7214 20.5627 99.2311 20.3006 98.6241 20.1577C98.0403 19.9909 97.1764 19.8003 96.1024 19.6335C94.6081 19.3952 93.3706 19.1093 92.4367 18.7995C91.4794 18.5136 90.6622 17.9894 90.0085 17.2269C89.3314 16.5121 88.9811 15.4637 88.9811 14.1294C88.9811 12.4139 89.6816 11.0319 91.0825 10.0073C92.4834 8.95893 94.3746 8.43474 96.7095 8.43474C97.9469 8.43474 99.2078 8.60153 100.445 8.88745C101.683 9.22103 102.71 9.62609 103.481 10.1503L102.056 12.8904C100.539 11.8658 98.7408 11.3655 96.6861 11.3655C95.2619 11.3655 94.1878 11.6276 93.4173 12.1041C92.6935 12.5807 92.32 13.2002 92.32 13.9865C92.32 14.606 92.5301 15.0825 92.9504 15.4637C93.3473 15.7973 93.8843 16.0594 94.4914 16.25C95.1218 16.4168 95.9857 16.6074 97.1064 16.8219C98.6007 17.084 99.8148 17.3699 100.725 17.6558C101.659 17.9418 102.453 18.4659 103.084 19.1808C103.761 19.8717 104.088 20.8963 104.088 22.1592C104.088 23.8747 103.364 25.2567 101.94 26.2574C100.492 27.282 98.5307 27.8062 96.0557 27.8062ZM115.061 8.43474C117.606 8.43474 119.591 9.07807 120.945 10.3886C122.299 11.6514 123 13.5814 123 16.1309V27.5679H119.824V25.0661C119.241 25.9477 118.447 26.6148 117.42 27.0914C116.392 27.5679 115.155 27.8062 113.707 27.8062C111.629 27.8062 109.971 27.282 108.711 26.2336C107.473 25.209 106.866 23.8747 106.866 22.2068C106.866 20.5389 107.45 19.2046 108.617 18.18C109.831 17.1793 111.723 16.6551 114.314 16.6551H119.638V15.9879C119.638 14.5106 119.217 13.3669 118.377 12.5807C117.536 11.7944 116.299 11.4131 114.664 11.4131C113.567 11.4131 112.493 11.6037 111.442 11.9611C110.392 12.3424 109.504 12.8189 108.781 13.4384L107.38 10.8651C108.337 10.0788 109.458 9.48313 110.812 9.05424C112.143 8.67301 113.544 8.43474 115.061 8.43474ZM114.268 25.1375C115.552 25.1375 116.672 24.8516 117.606 24.2559C118.54 23.6841 119.217 22.8501 119.638 21.7779V19.1331H114.454C111.606 19.1331 110.182 20.11 110.182 22.0638C110.182 23.0169 110.532 23.7794 111.256 24.3274C112.003 24.8754 113.007 25.1375 114.268 25.1375Z" fill="black"/>
<path fill-rule="evenodd" clip-rule="evenodd" d="M5.32305 3.16901L2.66133 4.76542L0.0229492 6.36184V0L2.66133 1.59642L5.32305 3.16901Z" fill="#5EE045"/>
</svg>
